<svg xmlns="http://www.w3.org/2000/svg" width="32" height="32" viewBox="0 0 20 20">
  <path fill-rule="evenodd" d="M.5 4.571C.5 3.5 1.2037 3.5 1.3178 3.5h17.3644c.1141 0 .8178-.022.8178 1.071s-.7037 1.0957-.8178 1.0957H1.3178c-.114 0-.8178-.025-.8178-1.0958zm18.7718 4.648c.0761.1008.1331.2184.1711.3528A1.562 1.562 0 0119.5 10c0 .1513-.019.2939-.0571.4284-.038.1343-.095.2518-.1711.3527-.0761.1007-.1649.1764-.2663.2267a.717.717 0 01-.3233.0755H1.3178a.717.717 0 01-.3233-.0755c-.1014-.0503-.1902-.126-.2663-.2267-.076-.1009-.133-.2184-.171-.3527A1.5638 1.5638 0 01.5 10c0-.1511.019-.2939.0571-.4282.038-.1344.095-.252.1711-.3528.0761-.1007.1649-.1763.2663-.2267a.7174.7174 0 01.3233-.0756h17.3644a.7175.7175 0 01.3233.0756c.1014.0504.1902.126.2663.2267zm0 5.4132c.0761.0996.1331.2158.1711.3486.0381.1329.0571.274.0571.4234 0 .1661-.019.3114-.0571.4358a1.407 1.407 0 01-.1711.3612c-.0761.0996-.1649.1743-.2663.2242a.7255.7255 0 01-.3233.0746H1.3178a.7254.7254 0 01-.3233-.0746c-.1014-.0499-.1902-.1246-.2663-.2242a1.4068 1.4068 0 01-.171-.3612C.519 15.7156.5 15.5703.5 15.4042c0-.1494.019-.2905.0571-.4234.038-.1328.095-.249.1711-.3486.0761-.0996.1649-.1743.2663-.2241a.7242.7242 0 01.3233-.0748h17.3644c.1141 0 .2218.025.3233.0748.1014.0498.1902.1245.2663.2241z" clip-rule="evenodd"/>
</svg>
