<svg xmlns="http://www.w3.org/2000/svg" width="32" height="32" viewBox="0 0 24 24">
  <path d="M19.886 15.486a11.325 11.325 0 00-4.322-2.711 6.57 6.57 0 002.855-5.417A6.582 6.582 0 0011.845.783 6.583 6.583 0 005.27 7.358a6.57 6.57 0 002.855 5.417 11.314 11.314 0 00-4.321 2.711 11.296 11.296 0 00-3.331 8.041H2.25c0-5.291 4.304-9.595 9.595-9.595 5.29 0 9.594 4.304 9.594 9.595h1.777a11.3 11.3 0 00-3.33-8.041zm-8.041-3.331a4.803 4.803 0 01-4.798-4.797 4.803 4.803 0 014.798-4.798 4.803 4.803 0 014.797 4.798 4.803 4.803 0 01-4.797 4.797z"/>
</svg>
